<svg xmlns="http://www.w3.org/2000/svg" version="1.1" width="1843" height="963" preserveAspectRatio="none" style="stroke-width: 3px; font-size: 11px; font-family: sans-serif; shape-rendering: crispedges;" id="SVG" viewBox="-20 -47 2504.809326171875 1037"><rect id="backgroundRect" x="-20" y="-47" width="2504.809326171875" height="1037" fill="white"></rect><path d="M 1824.8251745493276 963 H 1773.9356632874442 V 909.5" fill="none" stroke="black" stroke-width="3" class="treeEdge" vector-effect="non-scaling-stroke" id="node#9"></path><path d="M 1843 856 H 1773.9356632874442 V 909.5" fill="none" stroke="black" stroke-width="3" class="treeEdge" vector-effect="non-scaling-stroke" id="node#10"></path><path d="M 1828.4601396394619 749 H 1039.672715080273 V 829.25" fill="none" stroke="black" stroke-width="3" class="treeEdge" vector-effect="non-scaling-stroke" id="node#7"></path><path d="M 287.2349414224292 642.0000000000001 H 120.02654727624166 V 735.625" fill="none" stroke="black" stroke-width="3" class="treeEdge" vector-effect="non-scaling-stroke" id="node#5"></path><path d="M 381.7440337659264 535 H 69.13703601435867 V 635.3125" fill="none" stroke="black" stroke-width="3" class="treeEdge" vector-effect="non-scaling-stroke" id="node#3"></path><path d="M 378.10906867579183 428 H 298.13983669283255 V 374.49999999999994" fill="none" stroke="black" stroke-width="3" class="treeEdge" vector-effect="non-scaling-stroke" id="node#15"></path><path d="M 381.7440337659264 321.00000000000006 H 298.13983669283255 V 374.49999999999994" fill="none" stroke="black" stroke-width="3" class="treeEdge" vector-effect="non-scaling-stroke" id="node#16"></path><path d="M 298.13983669283255 214 H 247.25032543094977 V 294.25" fill="none" stroke="black" stroke-width="3" class="treeEdge" vector-effect="non-scaling-stroke" id="node#13"></path><path d="M 269.0601159717565 107.00000000000004 H 69.13703601435867 V 200.62500000000003" fill="none" stroke="black" stroke-width="3" class="treeEdge" vector-effect="non-scaling-stroke" id="node#17"></path><path d="M 290.8699065125636 0 H 18.247524752475265 V 278.64583333333326" fill="none" stroke="black" stroke-width="3" class="treeEdge" vector-effect="non-scaling-stroke" id="node#1"></path><path d="M 1773.9356632874442 909.5 H 1039.672715080273 V 829.25" fill="none" stroke="black" stroke-width="3" class="treeEdge" vector-effect="non-scaling-stroke" id="node#8"></path><path d="M 1039.672715080273 829.25 H 120.02654727624166 V 735.625" fill="none" stroke="black" stroke-width="3" class="treeEdge" vector-effect="non-scaling-stroke" id="node#6"></path><path d="M 120.02654727624166 735.625 H 69.13703601435867 V 635.3125" fill="none" stroke="black" stroke-width="3" class="treeEdge" vector-effect="non-scaling-stroke" id="node#4"></path><path d="M 69.13703601435867 635.3125 H 18.247524752475265 V 278.64583333333326" fill="none" stroke="black" stroke-width="3" class="treeEdge" vector-effect="non-scaling-stroke" id="node#2"></path><path d="M 298.13983669283255 374.49999999999994 H 247.25032543094977 V 294.25" fill="none" stroke="black" stroke-width="3" class="treeEdge" vector-effect="non-scaling-stroke" id="node#14"></path><path d="M 247.25032543094977 294.25 H 69.13703601435867 V 200.62500000000003" fill="none" stroke="black" stroke-width="3" class="treeEdge" vector-effect="non-scaling-stroke" id="node#12"></path><path d="M 69.13703601435867 200.62500000000003 H 18.247524752475265 V 278.64583333333326" fill="none" stroke="black" stroke-width="3" class="treeEdge" vector-effect="non-scaling-stroke" id="node#11"></path><path d="M 18.247524752475265 278.64583333333326 H 0 V 278.64583333333326" fill="none" stroke="black" stroke-width="3" class="treeEdge" vector-effect="non-scaling-stroke" id="node#0"></path><text x="1824.8251745493276" y="963" dominant-baseline="central" transform="matrix(1.35909, 0, 0, 1.07684, 0, 0) matrix(1, 0, 0, 1, -482.147, -68.7194)">s_all_Cami_S9_default_canFam6_ChrM_MQ25_dedup.cov5support80basequal0mask0</text><text x="1843" y="856" dominant-baseline="central" transform="matrix(1.35909, 0, 0, 1.07684, 0, 0) matrix(1, 0, 0, 1, -486.949, -61.0839)">s_all_ThorB_S7_default_canFam6_ChrM_MQ25_dedup.cov5support80basequal0mask0</text><text x="1828.4601396394619" y="749" dominant-baseline="central" transform="matrix(1.35909, 0, 0, 1.07684, 0, 0) matrix(1, 0, 0, 1, -483.107, -53.4484)">s_all_Charlie_S10_default_canFam6_ChrM_MQ25_dedup.cov5support80basequal0mask0</text><text x="287.2349414224292" y="642.0000000000001" dominant-baseline="central" transform="matrix(1.35909, 0, 0, 1.07684, 0, 0) matrix(1, 0, 0, 1, -75.8919, -45.8129)">s_all_Fritzy_S3_default_canFam6_ChrM_MQ25_dedup.cov5support80basequal0mask0</text><text x="381.7440337659264" y="535" dominant-baseline="central" transform="matrix(1.35909, 0, 0, 1.07684, 0, 0) matrix(1, 0, 0, 1, -100.863, -38.1774)">s_all_Heidi_S4_default_canFam6_ChrM_MQ25_dedup.cov5support80basequal0mask0</text><text x="378.10906867579183" y="428" dominant-baseline="central" transform="matrix(1.35909, 0, 0, 1.07684, 0, 0) matrix(1, 0, 0, 1, -99.9023, -30.5419)">s_all_Lily_S2_default_canFam6_ChrM_MQ25_dedup.cov5support80basequal0mask0</text><text x="381.7440337659264" y="321.00000000000006" dominant-baseline="central" transform="matrix(1.35909, 0, 0, 1.07684, 0, 0) matrix(1, 0, 0, 1, -100.863, -22.9065)">s_all_ThorA_S1_default_canFam6_ChrM_MQ25_dedup.cov5support80basequal0mask0</text><text x="298.13983669283255" y="214" dominant-baseline="central" transform="matrix(1.35909, 0, 0, 1.07684, 0, 0) matrix(1, 0, 0, 1, -78.7732, -15.271)">s_all_Anda_S8_default_canFam6_ChrM_MQ25_dedup.cov5support80basequal0mask0</text><text x="269.0601159717565" y="107.00000000000004" dominant-baseline="central" transform="matrix(1.35909, 0, 0, 1.07684, 0, 0) matrix(1, 0, 0, 1, -71.0898, -7.63549)">s_all_Vito_S5_default_canFam6_ChrM_MQ25_dedup.cov5support80basequal0mask0</text><text x="290.8699065125636" y="0" dominant-baseline="central" transform="matrix(1.35909, 0, 0, 1.07684, 0, 0) matrix(1, 0, 0, 1, -76.8523, -0)">s_all_Urza_S6_default_canFam6_ChrM_MQ25_dedup.cov5support80basequal0mask0</text></svg>