<svg xmlns="http://www.w3.org/2000/svg" version="1.1" width="1843" height="963" preserveAspectRatio="none" style="stroke-width: 3px; font-size: 11px; font-family: sans-serif; shape-rendering: crispedges;" id="SVG" viewBox="-20 -47 2504.809326171875 1037"><rect id="backgroundRect" x="-20" y="-47" width="2504.809326171875" height="1037" fill="white"></rect><path d="M 1825.352490568206 963 H 1775.9394641591819 V 914.8499999999999" fill="none" stroke="black" stroke-width="3" class="treeEdge" vector-effect="non-scaling-stroke" id="node#10"></path><path d="M 1843 866.7 H 1775.9394641591819 V 914.8499999999999" fill="none" stroke="black" stroke-width="3" class="treeEdge" vector-effect="non-scaling-stroke" id="node#11"></path><path d="M 1828.8819924545644 770.4000000000001 H 1045.3325736829001 V 842.625" fill="none" stroke="black" stroke-width="3" class="treeEdge" vector-effect="non-scaling-stroke" id="node#8"></path><path d="M 219.42913227492969 674.0999999999999 H 170.01610586590564 V 758.3625" fill="none" stroke="black" stroke-width="3" class="treeEdge" vector-effect="non-scaling-stroke" id="node#6"></path><path d="M 374.72721527471873 577.8 H 325.31418886569514 V 529.6500000000001" fill="none" stroke="black" stroke-width="3" class="treeEdge" vector-effect="non-scaling-stroke" id="node#15"></path><path d="M 434.7287473428192 481.5 H 325.31418886569514 V 529.6500000000001" fill="none" stroke="black" stroke-width="3" class="treeEdge" vector-effect="non-scaling-stroke" id="node#16"></path><path d="M 371.19771338836006 385.20000000000005 H 275.90116245667105 V 457.42499999999995" fill="none" stroke="black" stroke-width="3" class="treeEdge" vector-effect="non-scaling-stroke" id="node#13"></path><path d="M 371.19771338836006 288.90000000000003 H 117.07357757052294 V 240.75" fill="none" stroke="black" stroke-width="3" class="treeEdge" vector-effect="non-scaling-stroke" id="node#18"></path><path d="M 304.13717754754185 192.59999999999997 H 117.07357757052294 V 240.75" fill="none" stroke="black" stroke-width="3" class="treeEdge" vector-effect="non-scaling-stroke" id="node#19"></path><path d="M 194.72261907041758 96.29999999999998 H 18.247524752475265 V 173.54062499999998" fill="none" stroke="black" stroke-width="3" class="treeEdge" vector-effect="non-scaling-stroke" id="node#1"></path><path d="M 332.3731926384129 0 H 18.247524752475265 V 173.54062499999998" fill="none" stroke="black" stroke-width="3" class="treeEdge" vector-effect="non-scaling-stroke" id="node#2"></path><path d="M 1775.9394641591819 914.8499999999999 H 1045.3325736829001 V 842.625" fill="none" stroke="black" stroke-width="3" class="treeEdge" vector-effect="non-scaling-stroke" id="node#9"></path><path d="M 1045.3325736829001 842.625 H 170.01610586590564 V 758.3625" fill="none" stroke="black" stroke-width="3" class="treeEdge" vector-effect="non-scaling-stroke" id="node#7"></path><path d="M 170.01610586590564 758.3625 H 117.07357757052294 V 607.89375" fill="none" stroke="black" stroke-width="3" class="treeEdge" vector-effect="non-scaling-stroke" id="node#5"></path><path d="M 325.31418886569514 529.6500000000001 H 275.90116245667105 V 457.42499999999995" fill="none" stroke="black" stroke-width="3" class="treeEdge" vector-effect="non-scaling-stroke" id="node#14"></path><path d="M 275.90116245667105 457.42499999999995 H 117.07357757052294 V 607.89375" fill="none" stroke="black" stroke-width="3" class="treeEdge" vector-effect="non-scaling-stroke" id="node#12"></path><path d="M 117.07357757052294 607.89375 H 67.6605511614993 V 424.32187500000003" fill="none" stroke="black" stroke-width="3" class="treeEdge" vector-effect="non-scaling-stroke" id="node#4"></path><path d="M 117.07357757052294 240.75 H 67.6605511614993 V 424.32187500000003" fill="none" stroke="black" stroke-width="3" class="treeEdge" vector-effect="non-scaling-stroke" id="node#17"></path><path d="M 67.6605511614993 424.32187500000003 H 18.247524752475265 V 173.54062499999998" fill="none" stroke="black" stroke-width="3" class="treeEdge" vector-effect="non-scaling-stroke" id="node#3"></path><path d="M 18.247524752475265 173.54062499999998 H 0 V 173.54062499999998" fill="none" stroke="black" stroke-width="3" class="treeEdge" vector-effect="non-scaling-stroke" id="node#0"></path><text x="1825.352490568206" y="963" dominant-baseline="central" transform="matrix(1.35909, 0, 0, 1.07684, 0, 0) matrix(1, 0, 0, 1, -482.286, -68.7194)">s_all_Cami_S9_default_canFam6_ChrM_MQ25_dedup.cov5support80basequal0mask0</text><text x="1843" y="866.7" dominant-baseline="central" transform="matrix(1.35909, 0, 0, 1.07684, 0, 0) matrix(1, 0, 0, 1, -486.949, -61.8474)">s_all_ThorB_S7_default_canFam6_ChrM_MQ25_dedup.cov5support80basequal0mask0</text><text x="1828.8819924545644" y="770.4000000000001" dominant-baseline="central" transform="matrix(1.35909, 0, 0, 1.07684, 0, 0) matrix(1, 0, 0, 1, -483.219, -54.9755)">s_all_Charlie_S10_default_canFam6_ChrM_MQ25_dedup.cov5support80basequal0mask0</text><text x="219.42913227492969" y="674.0999999999999" dominant-baseline="central" transform="matrix(1.35909, 0, 0, 1.07684, 0, 0) matrix(1, 0, 0, 1, -57.9766, -48.1036)">s_all_Undetermined_S0_tagged_default_canFam6_ChrM_MQ25_dedup.cov5support80basequal0mask0</text><text x="374.72721527471873" y="577.8" dominant-baseline="central" transform="matrix(1.35909, 0, 0, 1.07684, 0, 0) matrix(1, 0, 0, 1, -99.0087, -41.2316)">s_all_Anda_S8_default_canFam6_ChrM_MQ25_dedup.cov5support80basequal0mask0</text><text x="434.7287473428192" y="481.5" dominant-baseline="central" transform="matrix(1.35909, 0, 0, 1.07684, 0, 0) matrix(1, 0, 0, 1, -114.862, -34.3597)">s_all_ThorA_S1_default_canFam6_ChrM_MQ25_dedup.cov5support80basequal0mask0</text><text x="371.19771338836006" y="385.20000000000005" dominant-baseline="central" transform="matrix(1.35909, 0, 0, 1.07684, 0, 0) matrix(1, 0, 0, 1, -98.0762, -27.4878)">s_all_Lily_S2_default_canFam6_ChrM_MQ25_dedup.cov5support80basequal0mask0</text><text x="371.19771338836006" y="288.90000000000003" dominant-baseline="central" transform="matrix(1.35909, 0, 0, 1.07684, 0, 0) matrix(1, 0, 0, 1, -98.0762, -20.6158)">s_all_Urza_S6_default_canFam6_ChrM_MQ25_dedup.cov5support80basequal0mask0</text><text x="304.13717754754185" y="192.59999999999997" dominant-baseline="central" transform="matrix(1.35909, 0, 0, 1.07684, 0, 0) matrix(1, 0, 0, 1, -80.3577, -13.7439)">s_all_Vito_S5_default_canFam6_ChrM_MQ25_dedup.cov5support80basequal0mask0</text><text x="194.72261907041758" y="96.29999999999998" dominant-baseline="central" transform="matrix(1.35909, 0, 0, 1.07684, 0, 0) matrix(1, 0, 0, 1, -51.4487, -6.87194)">s_all_Fritzy_S3_default_canFam6_ChrM_MQ25_dedup.cov5support80basequal0mask0</text><text x="332.3731926384129" y="0" dominant-baseline="central" transform="matrix(1.35909, 0, 0, 1.07684, 0, 0) matrix(1, 0, 0, 1, -87.8181, -0)">s_all_Heidi_S4_default_canFam6_ChrM_MQ25_dedup.cov5support80basequal0mask0</text></svg>