<svg xmlns="http://www.w3.org/2000/svg" version="1.1" width="1843" height="963" preserveAspectRatio="none" style="stroke-width: 3px; font-size: 11px; font-family: sans-serif; shape-rendering: crispedges;" id="SVG" viewBox="-20 -47 2504.809326171875 1037"><rect id="backgroundRect" x="-20" y="-47" width="2504.809326171875" height="1037" fill="white"></rect><path d="M 1825.039837842052 963 H 1774.7513837997974 V 909.5" fill="none" stroke="black" stroke-width="3" class="treeEdge" vector-effect="non-scaling-stroke" id="node#9"></path><path d="M 1843 856 H 1774.7513837997974 V 909.5" fill="none" stroke="black" stroke-width="3" class="treeEdge" vector-effect="non-scaling-stroke" id="node#10"></path><path d="M 1803.4876432525143 749 H 1024.0166055975674 V 829.25" fill="none" stroke="black" stroke-width="3" class="treeEdge" vector-effect="non-scaling-stroke" id="node#7"></path><path d="M 284.057924690107 642.0000000000001 H 118.82443283698449 V 735.625" fill="none" stroke="black" stroke-width="3" class="treeEdge" vector-effect="non-scaling-stroke" id="node#5"></path><path d="M 377.4507679114368 535 H 68.53597879472997 V 635.3125" fill="none" stroke="black" stroke-width="3" class="treeEdge" vector-effect="non-scaling-stroke" id="node#3"></path><path d="M 373.85873547984704 428 H 294.83402198487556 V 374.49999999999994" fill="none" stroke="black" stroke-width="3" class="treeEdge" vector-effect="non-scaling-stroke" id="node#15"></path><path d="M 377.4507679114368 321.00000000000006 H 294.83402198487556 V 374.49999999999994" fill="none" stroke="black" stroke-width="3" class="treeEdge" vector-effect="non-scaling-stroke" id="node#16"></path><path d="M 294.83402198487556 214 H 244.54556794262086 V 294.25" fill="none" stroke="black" stroke-width="3" class="treeEdge" vector-effect="non-scaling-stroke" id="node#13"></path><path d="M 266.09776253215904 107.00000000000004 H 68.53597879472997 V 200.62500000000003" fill="none" stroke="black" stroke-width="3" class="treeEdge" vector-effect="non-scaling-stroke" id="node#17"></path><path d="M 287.6499571216964 0 H 18.247524752475265 V 278.64583333333326" fill="none" stroke="black" stroke-width="3" class="treeEdge" vector-effect="non-scaling-stroke" id="node#1"></path><path d="M 1774.7513837997974 909.5 H 1024.0166055975674 V 829.25" fill="none" stroke="black" stroke-width="3" class="treeEdge" vector-effect="non-scaling-stroke" id="node#8"></path><path d="M 1024.0166055975674 829.25 H 118.82443283698449 V 735.625" fill="none" stroke="black" stroke-width="3" class="treeEdge" vector-effect="non-scaling-stroke" id="node#6"></path><path d="M 118.82443283698449 735.625 H 68.53597879472997 V 635.3125" fill="none" stroke="black" stroke-width="3" class="treeEdge" vector-effect="non-scaling-stroke" id="node#4"></path><path d="M 68.53597879472997 635.3125 H 18.247524752475265 V 278.64583333333326" fill="none" stroke="black" stroke-width="3" class="treeEdge" vector-effect="non-scaling-stroke" id="node#2"></path><path d="M 294.83402198487556 374.49999999999994 H 244.54556794262086 V 294.25" fill="none" stroke="black" stroke-width="3" class="treeEdge" vector-effect="non-scaling-stroke" id="node#14"></path><path d="M 244.54556794262086 294.25 H 68.53597879472997 V 200.62500000000003" fill="none" stroke="black" stroke-width="3" class="treeEdge" vector-effect="non-scaling-stroke" id="node#12"></path><path d="M 68.53597879472997 200.62500000000003 H 18.247524752475265 V 278.64583333333326" fill="none" stroke="black" stroke-width="3" class="treeEdge" vector-effect="non-scaling-stroke" id="node#11"></path><path d="M 18.247524752475265 278.64583333333326 H 0 V 278.64583333333326" fill="none" stroke="black" stroke-width="3" class="treeEdge" vector-effect="non-scaling-stroke" id="node#0"></path><text x="1825.039837842052" y="963" dominant-baseline="central" transform="matrix(1.35909, 0, 0, 1.07684, 0, 0) matrix(1, 0, 0, 1, -482.204, -68.7194)">s_all_Cami_S9_default_canFam6_ChrM_MQ25_dedup.cov5support80basequal0mask0</text><text x="1843" y="856" dominant-baseline="central" transform="matrix(1.35909, 0, 0, 1.07684, 0, 0) matrix(1, 0, 0, 1, -486.949, -61.0839)">s_all_ThorB_S7_default_canFam6_ChrM_MQ25_dedup.cov5support80basequal0mask0</text><text x="1803.4876432525143" y="749" dominant-baseline="central" transform="matrix(1.35909, 0, 0, 1.07684, 0, 0) matrix(1, 0, 0, 1, -476.509, -53.4484)">s_all_Charlie_S10_default_canFam6_ChrM_MQ25_dedup.cov5support80basequal0mask0</text><text x="284.057924690107" y="642.0000000000001" dominant-baseline="central" transform="matrix(1.35909, 0, 0, 1.07684, 0, 0) matrix(1, 0, 0, 1, -75.0525, -45.8129)">s_all_Fritzy_S3_default_canFam6_ChrM_MQ25_dedup.cov5support80basequal0mask0</text><text x="377.4507679114368" y="535" dominant-baseline="central" transform="matrix(1.35909, 0, 0, 1.07684, 0, 0) matrix(1, 0, 0, 1, -99.7283, -38.1774)">s_all_Heidi_S4_default_canFam6_ChrM_MQ25_dedup.cov5support80basequal0mask0</text><text x="373.85873547984704" y="428" dominant-baseline="central" transform="matrix(1.35909, 0, 0, 1.07684, 0, 0) matrix(1, 0, 0, 1, -98.7793, -30.5419)">s_all_Lily_S2_default_canFam6_ChrM_MQ25_dedup.cov5support80basequal0mask0</text><text x="377.4507679114368" y="321.00000000000006" dominant-baseline="central" transform="matrix(1.35909, 0, 0, 1.07684, 0, 0) matrix(1, 0, 0, 1, -99.7283, -22.9065)">s_all_ThorA_S1_default_canFam6_ChrM_MQ25_dedup.cov5support80basequal0mask0</text><text x="294.83402198487556" y="214" dominant-baseline="central" transform="matrix(1.35909, 0, 0, 1.07684, 0, 0) matrix(1, 0, 0, 1, -77.8997, -15.271)">s_all_Anda_S8_default_canFam6_ChrM_MQ25_dedup.cov5support80basequal0mask0</text><text x="266.09776253215904" y="107.00000000000004" dominant-baseline="central" transform="matrix(1.35909, 0, 0, 1.07684, 0, 0) matrix(1, 0, 0, 1, -70.3071, -7.63549)">s_all_Vito_S5_default_canFam6_ChrM_MQ25_dedup.cov5support80basequal0mask0</text><text x="287.6499571216964" y="0" dominant-baseline="central" transform="matrix(1.35909, 0, 0, 1.07684, 0, 0) matrix(1, 0, 0, 1, -76.0016, -0)">s_all_Urza_S6_default_canFam6_ChrM_MQ25_dedup.cov5support80basequal0mask0</text></svg>